<svg width="29" height="24" viewBox="0 0 29 24" fill="none" xmlns="http://www.w3.org/2000/svg">
<path d="M4.56018 12C4.95748 12.3268 5.27762 12.7374 5.49768 13.2023C6.06018 14.3625 6.06018 15.7805 6.06018 17.1562C6.06018 20.0051 6.17737 21.375 8.87268 21.375C9.12132 21.375 9.35978 21.4738 9.53559 21.6496C9.71141 21.8254 9.81018 22.0639 9.81018 22.3125C9.81018 22.5611 9.71141 22.7996 9.53559 22.9754C9.35978 23.1512 9.12132 23.25 8.87268 23.25C6.82424 23.25 5.43674 22.5305 4.74768 21.1102C4.18518 19.95 4.18518 18.532 4.18518 17.1562C4.18518 14.3074 4.06799 12.9375 1.37268 12.9375C1.12404 12.9375 0.885583 12.8387 0.709768 12.6629C0.533953 12.4871 0.435181 12.2486 0.435181 12C0.435181 11.7514 0.533953 11.5129 0.709768 11.3371C0.885583 11.1613 1.12404 11.0625 1.37268 11.0625C4.06799 11.0625 4.18518 9.69258 4.18518 6.84375C4.18518 5.47031 4.18518 4.05 4.74768 2.88984C5.43909 1.46953 6.82659 0.75 8.87502 0.75C9.12366 0.75 9.36212 0.848772 9.53794 1.02459C9.71375 1.2004 9.81252 1.43886 9.81252 1.6875C9.81252 1.93614 9.71375 2.1746 9.53794 2.35041C9.36212 2.52623 9.12366 2.625 8.87502 2.625C6.17971 2.625 6.06252 3.99492 6.06252 6.84375C6.06252 8.21719 6.06252 9.6375 5.50002 10.7977C5.27928 11.2629 4.95833 11.6735 4.56018 12ZM27.625 11.0625C24.9297 11.0625 24.8125 9.69258 24.8125 6.84375C24.8125 5.47031 24.8125 4.05 24.25 2.88984C23.561 1.46953 22.1735 0.75 20.125 0.75C19.8764 0.75 19.6379 0.848772 19.4621 1.02459C19.2863 1.2004 19.1875 1.43886 19.1875 1.6875C19.1875 1.93614 19.2863 2.1746 19.4621 2.35041C19.6379 2.52623 19.8764 2.625 20.125 2.625C22.8203 2.625 22.9375 3.99492 22.9375 6.84375C22.9375 8.21719 22.9375 9.6375 23.5 10.7977C23.7201 11.2626 24.0402 11.6732 24.4375 12C24.0402 12.3268 23.7201 12.7374 23.5 13.2023C22.9375 14.3625 22.9375 15.7805 22.9375 17.1562C22.9375 20.0051 22.8203 21.375 20.125 21.375C19.8764 21.375 19.6379 21.4738 19.4621 21.6496C19.2863 21.8254 19.1875 22.0639 19.1875 22.3125C19.1875 22.5611 19.2863 22.7996 19.4621 22.9754C19.6379 23.1512 19.8764 23.25 20.125 23.25C22.1735 23.25 23.561 22.5305 24.25 21.1102C24.8125 19.95 24.8125 18.532 24.8125 17.1562C24.8125 14.3074 24.9297 12.9375 27.625 12.9375C27.8737 12.9375 28.1121 12.8387 28.2879 12.6629C28.4638 12.4871 28.5625 12.2486 28.5625 12C28.5625 11.7514 28.4638 11.5129 28.2879 11.3371C28.1121 11.1613 27.8737 11.0625 27.625 11.0625Z" fill="#111C24"/>
</svg>
