<svg width="27" height="24" viewBox="0 0 27 24" fill="none" xmlns="http://www.w3.org/2000/svg">
<path d="M8.66602 2.19133L2.42344 11.9999L8.66602 21.8085C8.73219 21.9125 8.77722 22.0284 8.79855 22.1498C8.81987 22.2711 8.81707 22.3955 8.79029 22.5157C8.76352 22.636 8.7133 22.7498 8.64251 22.8507C8.57172 22.9515 8.48175 23.0374 8.37774 23.1034C8.22772 23.1996 8.05318 23.2504 7.875 23.2499C7.71702 23.2501 7.56156 23.2103 7.42307 23.1343C7.28457 23.0583 7.16753 22.9485 7.08282 22.8152L0.520316 12.5027C0.424592 12.3522 0.373749 12.1776 0.373749 11.9993C0.373749 11.821 0.424592 11.6464 0.520316 11.496L7.08282 1.18352C7.2163 0.97373 7.42766 0.82556 7.6704 0.771607C7.91314 0.717654 8.16736 0.762336 8.37715 0.895825C8.58694 1.02931 8.73511 1.24067 8.78907 1.48341C8.84302 1.72614 8.79834 1.98037 8.66485 2.19016L8.66602 2.19133ZM26.4785 11.4972L19.916 1.18469C19.8499 1.08081 19.764 0.990973 19.6632 0.920297C19.5624 0.84962 19.4486 0.799494 19.3284 0.772779C19.0857 0.718826 18.8315 0.763508 18.6217 0.896997C18.4119 1.03049 18.2637 1.24185 18.2098 1.48458C18.1558 1.72732 18.2005 1.98154 18.334 2.19133L24.5766 11.9999L18.334 21.8085C18.2678 21.9125 18.2228 22.0284 18.2015 22.1498C18.1801 22.2711 18.1829 22.3955 18.2097 22.5157C18.2365 22.636 18.2867 22.7498 18.3575 22.8507C18.4283 22.9515 18.5183 23.0374 18.6223 23.1034C18.7723 23.1996 18.9468 23.2504 19.125 23.2499C19.283 23.2501 19.4384 23.2103 19.5769 23.1343C19.7154 23.0583 19.8325 22.9485 19.9172 22.8152L26.4797 12.5027C26.575 12.3523 26.6255 12.1778 26.6253 11.9998C26.6251 11.8217 26.5742 11.6474 26.4785 11.4972Z" fill="#111C24"/>
</svg>
